<?xml version="1.0" standalone="no"?><!DOCTYPE svg PUBLIC "-//W3C//DTD SVG 1.1//EN" "http://www.w3.org/Graphics/SVG/1.1/DTD/svg11.dtd"><svg class="icon" width="48px" height="48.00px" viewBox="0 0 1024 1024" version="1.1" xmlns="http://www.w3.org/2000/svg"><path d="M373.52 267.977143h276.948571a85.714286 85.714286 0 0 0 85.622858-85.44v-4.571429a77.474286 77.474286 0 0 0-0.457143-8.651428 85.714286 85.714286 0 0 0-73.714286-76.011429 83.268571 83.268571 0 0 0-11.428571-0.891428h-37.142858v-6.857143A85.714286 85.714286 0 0 0 527.737143 0h-31.52a85.714286 85.714286 0 0 0-85.6 85.531429v6.857142h-37.142857a84.354286 84.354286 0 0 0-11.428572 0.891429 85.588571 85.588571 0 0 0-73.68 75.965714 84.034286 84.034286 0 0 0-0.457143 8.651429v4.571428a85.714286 85.714286 0 0 0 85.611429 85.508572zM876.571429 70.731429H750.457143v45.062857H876.571429a15.52 15.52 0 0 1 15.52 15.497143v832.285714A15.52 15.52 0 0 1 876.571429 979.085714H147.428571a15.52 15.52 0 0 1-15.508571-15.554285V131.245714A15.508571 15.508571 0 0 1 147.428571 115.771429h126.068572V70.685714H147.428571a60.628571 60.628571 0 0 0-60.571428 60.571429V963.428571a60.628571 60.628571 0 0 0 60.571428 60.571429h729.142858a60.571429 60.571429 0 0 0 60.571428-60.571429V131.245714a60.571429 60.571429 0 0 0-60.571428-60.514285zM306.662857 459.36h410.662857a45.92 45.92 0 1 0 0-91.84H306.662857a45.92 45.92 0 1 0 0 91.84z m410.662857 98.502857H306.662857a45.92 45.92 0 1 0 0 91.84h410.662857a45.92 45.92 0 1 0 0-91.84z m0 190.354286H306.662857a45.92 45.92 0 1 0 0 91.828571h410.662857a45.92 45.92 0 1 0 0-91.828571z" fill="#646464" /></svg>