<?xml version="1.0" standalone="no"?><!DOCTYPE svg PUBLIC "-//W3C//DTD SVG 1.1//EN" "http://www.w3.org/Graphics/SVG/1.1/DTD/svg11.dtd"><svg class="icon" width="48px" height="48.00px" viewBox="0 0 1024 1024" version="1.1" xmlns="http://www.w3.org/2000/svg"><path d="M707.4 488.2c0-17.7-11.8-29.5-29.5-29.5H348.1c-17.7 0-29.5 11.8-29.5 29.5s11.8 29.5 29.5 29.5h335.8c11.7 0 23.5-17.7 23.5-29.5zM348.1 670.8c-17.7 0-29.5 11.8-29.5 29.5s11.8 29.5 29.5 29.5H566c17.7 0 29.5-11.8 29.5-29.5s-11.8-29.5-29.5-29.5H348.1zM348.1 299.7h335.8c17.7 0 29.5-11.8 29.5-29.5s-11.8-29.5-29.5-29.5H348.1c-17.7 0-29.5 11.8-29.5 29.5s11.8 29.5 29.5 29.5zM901.8 670.8h-53l-47.2 88.4-53-88.4h-58.9l47.1 88.4h-47.1v47.1h82.5v35.4h-82.5v47.1h82.5v58.9h53v-58.9h82.5v-47.1h-82.5v-35.4h82.5v-47.1h-53.1z" fill="#646464" /><path d="M784 64.1H242c-76.6 0-141.4 58.9-141.4 135.5v618.5c0 76.6 64.8 141.4 141.4 141.4h318.1c17.7 0 29.5-11.8 29.5-29.5s-11.8-29.5-29.5-29.5H242c-47.1 0-82.5-35.3-82.5-76.6V199.6c0-41.2 35.3-76.6 82.5-76.6h547.8c41.2 0 76.6 35.3 76.6 76.6v371.1c0 17.7 11.8 29.5 29.5 29.5s29.5-11.8 29.5-29.5V199.6C925.3 123 860.5 64.1 784 64.1z" fill="#646464" /></svg>