<?xml version="1.0" standalone="no"?><!DOCTYPE svg PUBLIC "-//W3C//DTD SVG 1.1//EN" "http://www.w3.org/Graphics/SVG/1.1/DTD/svg11.dtd"><svg class="icon" width="48px" height="48.00px" viewBox="0 0 1024 1024" version="1.1" xmlns="http://www.w3.org/2000/svg"><path d="M700.304496 737.747406a39.097915 39.097915 0 0 1-38.86519 38.86519h-138.471783a39.097915 39.097915 0 0 1-38.86519-38.86519v-144.289925a39.097915 39.097915 0 0 1 38.86519-38.86519h138.471783a39.097915 39.097915 0 0 1 38.86519 38.86519z m0 246.921953A39.097915 39.097915 0 0 1 661.439306 1024h-138.471783a39.097915 39.097915 0 0 1-38.86519-38.86519v-144.289925a39.097915 39.097915 0 0 1 38.86519-38.865189h138.471783a39.097915 39.097915 0 0 1 38.86519 38.865189zM953.277316 737.747406a39.097915 39.097915 0 0 1-38.865189 38.86519h-138.471784a39.097915 39.097915 0 0 1-38.865189-38.86519v-144.289925a39.097915 39.097915 0 0 1 38.865189-38.86519h138.471784a39.097915 39.097915 0 0 1 38.865189 38.86519z m0 246.921953A39.097915 39.097915 0 0 1 914.412127 1024h-138.471784a39.097915 39.097915 0 0 1-38.865189-38.86519v-144.289925a39.097915 39.097915 0 0 1 38.865189-38.865189h138.471784a39.097915 39.097915 0 0 1 38.865189 38.865189z m-573.901541-418.906235L200.176996 837.819451a31.650693 31.650693 0 0 0-5.119965 17.687152 30.952516 30.952516 0 0 0 30.25434 30.719791h226.209366V569.021284v-2.559983z m0 0" fill="#646464" /><path d="M451.520737 920.43707H209.951475a79.126733 79.126733 0 0 1-55.854164-16.988975 40.726995 40.726995 0 0 1-13.963542-29.556162 60.275953 60.275953 0 0 1 8.610851-31.185242l219.227596-332.797731a363.750247 363.750247 0 0 0 54.457811-192.231417V69.824688h141.497217v247.387404a360.492088 360.492088 0 0 0 52.82873 192.464142l10.23993 15.359895h84.944876l-34.210676-52.130553a288.347125 288.347125 0 0 1-42.123349-155.228033V111.715311c0-43.054252 27.927082-73.541317 33.279773-93.090274s0-18.618055-33.512499-18.618055H354.706852c-35.374304 0-40.959721 0-36.072481 18.618055s33.745224 51.665102 33.745224 93.090274v204.565878a290.674382 290.674382 0 0 1-44.450606 155.228033l-108.915621 170.587927-108.682895 161.278901A134.282721 134.282721 0 0 0 70.316064 874.59011c0 61.905032 36.072481 116.362843 139.635411 116.362843h241.569262v-69.817706z m0 0" fill="#646464" /></svg>