<?xml version="1.0" standalone="no"?><!DOCTYPE svg PUBLIC "-//W3C//DTD SVG 1.1//EN" "http://www.w3.org/Graphics/SVG/1.1/DTD/svg11.dtd"><svg class="icon" width="48px" height="48.00px" viewBox="0 0 1024 1024" version="1.1" xmlns="http://www.w3.org/2000/svg"><path d="M829.504 960H194.56A130.496 130.496 0 0 1 64 829.504V194.56C64 122.432 122.432 64 194.496 64h635.008C901.568 64 960 122.432 960 194.496v635.008A128.768 128.768 0 0 1 831.744 960h-2.24zM185.6 128a57.6 57.6 0 0 0-57.6 57.6v652.8a57.6 57.6 0 0 0 57.6 57.6h652.8a57.6 57.6 0 0 0 57.6-57.6V185.6a57.6 57.6 0 0 0-57.6-57.6H185.6z m543.232 208.704c19.072 0.64 34.496 16 35.328 35.264 0 19.84-15.808 35.84-35.328 35.84h-36.416c-15.232 33.6-48.256 55.04-84.672 55.04a93.184 93.184 0 0 1-84.672-55.04H287.488a35.584 35.584 0 0 1 0-71.04h237.248c14.848-33.984 48-55.872 84.672-55.872 36.608 0 69.76 21.888 84.672 55.808h34.752z m0 280c19.2 0.896 34.496 16.448 35.328 35.84a35.584 35.584 0 0 1-35.328 35.328H491.584c-14.848 33.92-48 55.808-84.672 55.808-36.608 0-69.76-21.888-84.672-55.808h-34.752a35.584 35.584 0 0 1-35.328-35.328 36.16 36.16 0 0 1 10.176-25.664 35.072 35.072 0 0 1 25.152-10.752h36.928c14.912-33.92 48.064-55.808 84.736-55.808 36.608 0 69.76 21.888 84.672 55.808l235.008 0.64z" fill="#646464" /></svg>