<?xml version="1.0" standalone="no"?><!DOCTYPE svg PUBLIC "-//W3C//DTD SVG 1.1//EN" "http://www.w3.org/Graphics/SVG/1.1/DTD/svg11.dtd"><svg class="icon" width="48px" height="48.00px" viewBox="0 0 1024 1024" version="1.1" xmlns="http://www.w3.org/2000/svg"><path d="M554.666667 874.666667h235.221333a21.333333 21.333333 0 1 1 0 42.666666H276.906667a21.333333 21.333333 0 1 1 0-42.666666H512v-170.666667a21.333333 21.333333 0 1 1 42.666667 0v170.666667z m-128-597.333334a21.333333 21.333333 0 1 1 42.666666 0v298.666667a21.333333 21.333333 0 1 1-42.666666 0v-298.666667z m298.666666 42.666667a21.333333 21.333333 0 1 1 42.666667 0v256a21.333333 21.333333 0 1 1-42.666667 0v-256z m-426.666666 42.666667a21.333333 21.333333 0 0 1 42.666666 0v213.333333a21.333333 21.333333 0 1 1-42.666666 0v-213.333333z m284.458666 42.666666a21.333333 21.333333 0 1 1 42.666667 0v170.666667a21.333333 21.333333 0 0 1-42.666667 0v-170.666667zM170.666667 170.666667a42.666667 42.666667 0 0 0-42.666667 42.666666v426.666667a42.666667 42.666667 0 0 0 42.666667 42.666667h725.333333a42.666667 42.666667 0 0 0 42.666667-42.666667V213.333333a42.666667 42.666667 0 0 0-42.666667-42.666666H170.666667z m0-42.666667h725.333333a85.333333 85.333333 0 0 1 85.333333 85.333333v426.666667a85.333333 85.333333 0 0 1-85.333333 85.333333H170.666667a85.333333 85.333333 0 0 1-85.333334-85.333333V213.333333a85.333333 85.333333 0 0 1 85.333334-85.333333z" fill="#646464" /></svg>