<svg t="1620277474629" class="icon" viewBox="0 0 1024 1024" version="1.1" xmlns="http://www.w3.org/2000/svg" p-id="2015" width="200" height="200"><path d="M512 896A384 384 0 1 0 512 128a384 384 0 0 0 0 768z m0 64A448 448 0 1 1 512 64a448 448 0 0 1 0 896z m32-352a32 32 0 0 1-64 0v-4.8a160 160 0 0 1 86.144-141.952c6.272-3.264 10.88-6.464 13.76-9.344A96 96 0 1 0 416 384a32 32 0 0 1-64.064-0.064 160 160 0 1 1 273.152 113.152c-7.936 7.872-17.728 14.72-29.44 20.864a96 96 0 0 0-51.712 85.12V608zM512 720a48 48 0 1 1 0 96 48 48 0 0 1 0-96z" p-id="2016"></path></svg>
