<?xml version="1.0" standalone="no"?><!DOCTYPE svg PUBLIC "-//W3C//DTD SVG 1.1//EN" "http://www.w3.org/Graphics/SVG/1.1/DTD/svg11.dtd"><svg class="icon" width="48px" height="48.00px" viewBox="0 0 1024 1024" version="1.1" xmlns="http://www.w3.org/2000/svg"><path d="M113.322667 988.672a82.944 82.944 0 0 1-82.602667-82.517333V126.549333c0-45.226667 37.290667-82.602667 82.602667-82.602666h570.538666c45.226667 0 82.517333 37.290667 82.517334 82.602666v147.114667a34.133333 34.133333 0 0 1-33.962667 33.962667 34.133333 34.133333 0 0 1-33.877333-33.962667V126.549333a14.762667 14.762667 0 0 0-14.677334-14.677333H113.322667a14.762667 14.762667 0 0 0-14.677334 14.677333v779.605334c0 7.936 6.656 14.592 14.677334 14.592h279.637333c8.618667 0 17.237333 4.010667 23.296 10.666666 5.973333 6.656 9.301333 15.36 9.301333 23.978667a34.304 34.304 0 0 1-33.28 33.28h-279.04z" fill="#646464" /><path d="M194.56 275.029333a29.866667 29.866667 0 0 1-30.037333-30.037333 29.866667 29.866667 0 0 1 30.037333-29.866667h342.186667a29.866667 29.866667 0 0 1 29.866666 29.866667 29.866667 29.866667 0 0 1-29.866666 30.037333H194.56z m0 153.770667a29.866667 29.866667 0 0 1-30.037333-29.952 29.866667 29.866667 0 0 1 30.037333-29.952h222.293333a29.866667 29.866667 0 0 1 29.952 29.866667 29.866667 29.866667 0 0 1-29.866666 30.037333H194.56z m0 154.453333a29.952 29.952 0 0 1-30.037333-30.72c0-16.554667 13.397333-29.866667 30.037333-30.549333h144.469333c16.64 0 29.866667 13.312 29.866667 30.634667a30.378667 30.378667 0 0 1-29.866667 30.634666H194.56z m536.576 68.522667a140.970667 140.970667 0 0 1-140.458667-140.458667c0-77.226667 63.146667-140.458667 140.458667-140.458666 77.226667 0 140.458667 63.232 140.458667 140.458666 0 77.909333-63.232 140.458667-140.458667 140.458667z m0-220.330667a80.128 80.128 0 0 0-79.872 79.872c0 43.946667 35.925333 79.872 79.872 79.872a80.128 80.128 0 0 0 79.872-79.872 80.128 80.128 0 0 0-79.872-79.872z m208.384 576.512H522.752a29.866667 29.866667 0 0 1-29.952-29.866666V831.488a29.866667 29.866667 0 0 1 29.866667-29.952h416.853333a29.866667 29.866667 0 0 1 29.952 29.866667v146.517333a29.44 29.44 0 0 1-29.952 29.952z m-386.816-59.904h356.864v-85.845333H552.704v85.845333z" fill="#646464" /><path d="M587.349333 860.16a29.184 29.184 0 0 1-27.306666-19.968 28.501333 28.501333 0 0 1 18.602666-35.242667c103.253333-32 81.237333-172.373333 79.872-178.432a28.501333 28.501333 0 0 1 23.381334-32.597333 28.501333 28.501333 0 0 1 32.597333 23.296c11.264 67.242667 1.28 204.373333-119.210667 241.664a33.450667 33.450667 0 0 1-7.936 1.28z m294.229334 0c-2.645333 0-5.290667-0.597333-8.618667-1.28C752.469333 821.589333 742.4 684.373333 753.749333 617.216a28.501333 28.501333 0 0 1 32.597334-23.296c15.36 2.56 26.026667 17.237333 23.381333 32.597333-0.682667 5.973333-22.698667 146.432 79.872 178.346667a28.501333 28.501333 0 0 1 18.602667 35.328 27.733333 27.733333 0 0 1-26.624 19.968z" fill="#646464" /></svg>