<?xml version="1.0" standalone="no"?><!DOCTYPE svg PUBLIC "-//W3C//DTD SVG 1.1//EN" "http://www.w3.org/Graphics/SVG/1.1/DTD/svg11.dtd"><svg class="icon" width="48px" height="48.00px" viewBox="0 0 1024 1024" version="1.1" xmlns="http://www.w3.org/2000/svg"><path d="M888.5 470.7C867 420.2 828.2 373.9 773.1 333c-0.7-0.5-1.4-1-2.1-1.6-1.5-1.1-3.2-2.3-3.7-3.2-4.3-8.5-8.3-16.9-12.6-25.9-2.2-4.5-4.4-9.1-6.7-13.8 8.2-7.1 16.8-14.5 25.6-22 10.2-8.8 20.7-17.7 31-26.7 7.7-6.6 11.1-12.2 11.1-18.3 0-7.8-6-14-11.3-18.5-4.3-3.7-8.6-7.3-13.2-11l-3-2.4c1.6-1.7 2.9-3.1 3.8-4.5 11.1-9.7 22.6-19.6 33.6-29.2 11.2-9.7 22.9-19.7 34.2-29.6 7-6.1 10.3-12 10.4-18 0-5.3-2.7-10.4-8-15.1-22.4-20-43.1-38-63.3-55.1-11.2-9.7-24-9.4-36.1 0.7-12 9.7-23.6 20-34.9 29.9-13 11.2-26 22.6-39.7 34.7l-0.6 0.5c-4.6-4.2-9.1-8.2-13.4-12.3-17.3-16.1-28.5-16.3-46.1-1.1l-1.5 1.3c-75.4 65.2-153.5 132.5-230.2 199-2.7 2.4-4.6 5.2-6.3 7.8-0.2 0.4-0.5 0.7-0.7 1.1h-0.6l-1.8-2.4c-2.9-3.9-6.3-8.3-11.3-11-6-3.2-15.8-5.1-22.9-2.8-6.9 2-13.8 9.9-14.5 16.8-0.7 6.7 4.1 14.3 9 18.9 8.8 8.1 17.9 15.7 27.5 23.7 2.8 2.3 5.6 4.7 8.5 7.1-2 1.8-3.7 3.4-5.5 4.9-15.8 13.7-31.8 27.6-47.4 41-15.5 13.4-31.6 27.3-47.4 41-5.2 4.6-11.2 10.8-11.1 18.5 0 7.6 6 13.8 11.2 18.3 8.6 7.4 17.1 14.8 25.6 22.2 16.7 14.5 34 29.5 51.2 44.2 14.6 12.3 25.9 12.3 40.3-0.2 15.9-13.6 31.9-27.5 47.5-40.9 15.5-13.4 31.6-27.3 47.5-40.9 2-1.8 4.1-3.4 6.8-5.5 12.5 11.1 24.3 21.7 36.7 32.2 11.9 10.1 25.1 10.7 35.3 1.7 4.7-4.3 7.1-9.4 7-14.7-0.1-4.2-1.9-10.7-9.9-17.5-1.9-1.6-4-3-6-4.2l46.1-39.8c27.5 17.6 55.9 22.4 84.5 14.3 7.1-2 11-1.3 16 3 64.3 54.2 87.5 118.9 68.8 192.5-19 75.5-72.8 126.4-160 151.4-2.3 0.6-7-0.1-8.8-1.4l-0.1-0.1c-41-28.3-84.5-28.1-125.8 0.4-2.6 1.8-3.8 2.3-4.2 2.4-22.5-5.6-40.7-12.8-56.2-22.3h62.5V644.7H115.3v106.1h36.1c31.4 0 61 0.1 91.2-0.2 6.3 0 9.6 1.5 13.2 5.9 44.4 53.1 102.4 91.1 172.6 113-19.2 0.4-39.4 0.4-60.9 0.1-12.2 0-20.8 4-27.3 12.7-16.5 21.6-33.4 43.6-50.4 65.3-3.7 4.8-11.3 14.9-3.7 26.3 7 10.7 19.4 10.7 26.1 10.7h473.7c9.9 0 19.9-1.3 26.1-10.7 7.7-11.4 0-21.5-3.7-26.4-5.5-7.1-11-14.5-16.4-21.5-11.4-15.1-23.1-30.6-35.5-45.5-5.1-6.3-16.4-10.3-24.2-10.5-20.5-0.7-41.2-0.6-61.3-0.5H668c58.5-18.7 107.2-45.5 144.9-80 43.7-39.9 73.1-90.4 87.3-150 14.3-60 10.4-116.8-11.7-168.8zM352.1 941c1.4-1.8 2.8-3.6 4.1-5.4 6.1-8 11.9-15.6 18-23 0.7-0.5 3.1-1.1 5.1-1.1 41.7-0.2 84.1-0.2 125.8 0 3.3 0.2 7 1 10.9 2.4 21.5 7.3 43.5 7.4 65.7 0.4 5.1-1.7 11-2.6 16.5-2.6 16.8-0.1 33.9-0.1 50.5 0 22.1 0 45 0.1 67.3-0.2 6.2 0 8.9 1.2 11.8 5.3 4.9 7.2 10.4 14.1 16.2 21.5 0.8 1 1.6 2.1 2.4 3.1-134.7-0.1-262.4-0.1-394.3-0.4z m236.1-77.3c-9.3 9-23.8 13.8-40.7 13.6-15.6-0.1-29.1-5.1-37.9-14-7.6-7.8-11.6-18.2-11.5-30.1 0.1-11.3 4.1-21.1 11.6-28.4 9.2-9 23.4-14 40-14h1c15.9 0.2 29.5 5.3 38.3 14.4 7.5 7.7 11.3 18 11.2 29.7-0.3 11.4-4.4 21.4-12 28.8z m59.3-32.3c-1.5-7.1-3-14.4-4.4-21.6 100.7-35.2 162.6-96.5 183.9-182.1 11-44.2 8.9-86.8-6.3-126.7-14-36.6-39.3-71.7-75.3-104.5 1.7-2.3 3.5-4.6 5.2-7 2.9-3.8 5.8-7.7 8.7-11.6 36.8 27 66.5 64.4 83.9 105.9 20 47.6 23.8 99.6 11 150.4-23.5 93-115.5 180.4-206.7 197.2z m-14.1-520.5c9.2-7.8 22.4-11.9 38.2-11.9 30 0.2 50.1 17.7 50.1 43.5-0.1 12.7-5 23.5-14.1 31.3-9.3 7.9-22.4 12-37.8 11.9-30.4-0.2-50.1-17.3-50.1-43.6 0-12.8 4.7-23.6 13.7-31.2z m70-48.4c-31.7-11.1-67.4-5.3-95.4 15.6-23.4 17.4-36.8 42.6-35.6 67.4 0.3 5.7 2 11.1 3.6 16.4 1 3.4 2 6.5 2.6 9.7v0.2c0.4 1.8 0.2 3.8-0.2 4.5-13 11.7-26.5 23.3-39.5 34.5-2.2 1.9-4.4 3.8-6.5 5.6-11.9-10.4-23.7-20.7-35.5-31.1-22.4-19.6-45.5-39.9-68-59.4 49.2-42.6 99.9-86.3 148.9-128.7 24.7-21.3 49.3-42.6 73.9-63.8 23.2 20.4 46.9 41.1 71.9 62.9 10.4 9.1 21 18.3 31.5 27.5-3.7 3.2-7.5 6.4-11.4 9.8-10.8 9.3-21.9 18.9-33.5 28.4-0.9 0.7-4.9 1.2-6.8 0.5z m23.4-130.1c18.4-15.9 37.4-32.2 56.2-48.1 4.6 4 9.3 8.2 14 12.3 4.4 3.8 8.7 7.6 13 11.3-12.5 10.7-25.4 21.9-37.9 32.8-6 5.2-12.1 10.5-18.1 15.7-7.7-6.8-16.3-14.4-24.9-21.9l-2.3-2.1zM465 422.4c-26.2 22.8-55.3 48.1-84 73-7.9-6.9-15.9-13.8-23.8-20.6-7.4-6.4-15.1-13-22.5-19.5l84.3-72.8c15.2 13.3 30.8 26.8 46 39.9zM348 750.8c0.4 0.3 1.2 1 1.7 1.4 0.3 0.3 0.6 0.5 1 0.9 30.4 25.2 65.5 44 104.6 56-1.5 7.1-2.9 14.3-4.3 22.4-54.8-15.5-100.4-42.1-139.2-80.8 12.7-0.1 24.4 0 36.2 0.1z m93-64.3v21H163.1v-21H441z" fill="#646464" /></svg>