<?xml version="1.0" standalone="no"?><!DOCTYPE svg PUBLIC "-//W3C//DTD SVG 1.1//EN" "http://www.w3.org/Graphics/SVG/1.1/DTD/svg11.dtd"><svg class="icon" width="48px" height="48.00px" viewBox="0 0 1024 1024" version="1.1" xmlns="http://www.w3.org/2000/svg"><path d="M631.296 238.08H207.872c-16.896 0-30.208 13.312-30.208 30.208 0 16.896 13.824 30.208 30.208 30.208h423.424c16.896 0 30.208-13.312 30.208-30.208 0-16.896-13.824-30.208-30.208-30.208z m30.208 211.456c0-16.384-13.312-30.208-30.208-30.208H207.872c-16.896 0-30.208 13.312-30.208 30.208 0 16.896 13.824 30.208 30.208 30.208h423.424c16.384 0 30.208-13.312 30.208-30.208z m-453.632 151.04c-16.896 0-30.208 13.824-30.208 30.208 0 16.896 13.824 30.208 30.208 30.208H389.12c16.896 0 30.208-13.312 30.208-30.208 0-16.384-13.824-30.208-30.208-30.208H207.872z m739.84 238.592l-37.376-22.016c2.048-11.264 3.584-23.04 3.584-35.328 0-11.776-1.536-23.552-3.584-35.328l37.376-21.504c15.36-8.704 20.48-28.672 11.776-44.032l-31.744-55.808c-6.144-10.24-16.384-16.384-27.648-16.384-5.632 0-10.752 1.536-15.872 4.608l-37.888 22.016c-17.408-15.36-37.888-27.648-59.904-35.328v-27.648c0-17.92-14.336-32.256-31.744-32.256h-64c-17.408 0-31.744 14.336-31.744 32.256v27.648c-22.528 8.192-42.496 20.48-59.904 35.328l-37.888-22.016c-5.12-3.072-10.752-4.608-15.872-4.608-11.264 0-21.504 5.632-27.648 16.384L484.352 680.96c-8.704 15.36-3.584 35.328 11.776 44.032l37.376 21.504c-2.048 11.776-3.584 23.04-3.584 35.328 0 11.776 1.536 23.552 3.584 35.328l-37.376 22.016c-15.36 8.704-20.48 28.672-11.776 44.032l31.744 55.808c6.144 10.24 16.384 16.384 27.648 16.384 5.632 0 10.752-1.536 15.872-4.608l37.888-22.016c17.408 15.36 37.888 27.648 59.904 35.328v27.648c0 17.92 14.336 32.256 31.744 32.256h64c17.408 0 31.744-14.336 31.744-32.256v-27.648c22.528-8.192 42.496-20.48 59.904-35.328l37.888 22.016c5.12 3.072 10.752 4.608 15.872 4.608 11.264 0 21.504-5.632 27.648-16.384l31.744-55.808c10.24-15.36 5.12-34.816-10.24-44.032z m-79.36-84.48c2.048 10.24 3.072 19.456 3.072 27.648 0 8.192-1.024 17.408-3.072 27.648l-8.704 47.616 41.984 24.576 14.848 8.704-4.096 7.68-14.336-8.192-43.008-25.088-36.864 31.744c-14.848 12.8-30.208 22.016-46.592 27.648l-45.568 16.384v47.104h-7.68v-47.616l-45.568-16.384c-16.384-5.632-31.744-15.36-46.592-27.648l-37.376-31.744-42.496 24.576-14.336 8.704-4.096-7.68 14.848-8.704 41.984-24.576-8.704-47.616c-1.536-10.24-2.56-19.456-2.56-27.648 0-8.192 1.024-17.408 2.56-27.648l8.704-47.616-41.984-24.576-14.848-8.704 4.096-7.68 14.336 8.192 41.984 24.576 37.376-31.744c14.848-12.8 30.208-22.016 46.592-27.648l45.568-16.384v-47.616h8.192v47.616l45.568 16.384c16.384 5.632 31.744 14.848 46.592 27.648l36.864 31.744 42.496-24.576 14.336-8.192 4.096 7.68-14.848 8.704-41.472 24.576 8.704 48.128z m-17.408 3.072" fill="#646464" /><path d="M412.16 907.264H138.752c-47.616 0-86.016-38.912-86.016-87.04V139.776c0-48.128 38.4-87.04 86.016-87.04h561.664c47.616 0 86.016 38.912 86.016 87.04v338.432c0 14.848 11.776 26.624 26.624 26.624 14.336 0 26.624-11.776 26.624-26.624V139.776c0-76.8-62.464-139.776-138.752-139.776H138.752C61.952 0 0 62.464 0 139.776v680.448c0 76.8 62.464 139.776 138.752 139.776h273.408c14.848 0 26.624-11.776 26.624-26.624-0.512-14.848-12.288-26.112-26.624-26.112z m0 0" fill="#646464" /></svg>