<?xml version="1.0" standalone="no"?><!DOCTYPE svg PUBLIC "-//W3C//DTD SVG 1.1//EN" "http://www.w3.org/Graphics/SVG/1.1/DTD/svg11.dtd"><svg class="icon" width="48px" height="48.00px" viewBox="0 0 1024 1024" version="1.1" xmlns="http://www.w3.org/2000/svg"><path d="M874.666667 416h-85.333334V149.333333c0-23.466667-19.2-42.666667-42.666666-42.666666H149.333333c-23.466667 0-42.666667 19.2-42.666666 42.666666v725.333334c0 23.466667 19.2 42.666667 42.666666 42.666666h597.333334c23.466667 0 42.666667-19.2 42.666666-42.666666v-202.666667h85.333334c23.466667 0 42.666667-19.2 42.666666-42.666667v-170.666666c0-23.466667-19.2-42.666667-42.666666-42.666667zM256 853.333333H170.666667V170.666667h85.333333v682.666666z m469.333333 0H320V170.666667h405.333333v245.333333h-70.4c-17.066667 0-32 8.533333-38.4 23.466667l-42.666666 85.333333c-6.4 12.8-6.4 25.6 0 38.4l42.666666 85.333333c6.4 14.933333 21.333333 23.466667 38.4 23.466667H725.333333V853.333333z m128-245.333333h-183.466666l-32-64 32-64H853.333333v128z" fill="#646464" /><path d="M437.333333 320h170.666667c17.066667 0 32-14.933333 32-32s-14.933333-32-32-32h-170.666667c-17.066667 0-32 14.933333-32 32s14.933333 32 32 32zM522.666667 384h-85.333334c-17.066667 0-32 14.933333-32 32s14.933333 32 32 32h85.333334c17.066667 0 32-14.933333 32-32s-14.933333-32-32-32z" fill="#646464" /></svg>