<?xml version="1.0" standalone="no"?><!DOCTYPE svg PUBLIC "-//W3C//DTD SVG 1.1//EN" "http://www.w3.org/Graphics/SVG/1.1/DTD/svg11.dtd"><svg class="icon" width="48px" height="48.00px" viewBox="0 0 1024 1024" version="1.1" xmlns="http://www.w3.org/2000/svg"><path d="M469.138882 15.228592c17.193572 4.175582 27.755337 21.614776 23.579756 38.562725-3.193092 13.754857-6.631806 27.509715-9.824898 41.264572 31.194051 15.228592 58.703766 35.369633 81.792276 59.440633 12.0355-7.368674 24.316623-14.737347 36.352123-22.351643 14.98297-9.088031 34.632766-4.421204 43.966418 10.561765 10.561765 17.439194 21.369153 34.632766 31.930919 52.07196 4.666827 7.614296 5.894939 15.719837 3.929959 24.316623-1.96498 8.596786-6.877429 15.228592-14.491724 19.895418-12.0355 7.368674-24.071 14.737347-36.352123 22.106021 11.05301 31.685296 16.456704 65.335572 15.965459 99.968338 13.754857 3.438714 27.755337 6.631806 41.510195 10.07052 17.193572 4.175582 27.755337 21.369153 23.579755 38.562725-4.666827 19.649796-9.579276 39.545215-14.246102 59.195011a31.930919 31.930919 0 0 1-38.562725 23.579755c-13.754857-3.438714-27.755337-6.631806-41.510194-10.07052a290.325738 290.325738 0 0 1-59.440634 81.792276c7.368674 12.0355 14.737347 24.071 22.351643 36.352123 4.666827 7.614296 5.894939 15.719837 3.92996 24.316622-1.96498 8.596786-6.877429 15.228592-14.491725 19.895419-17.439194 10.561765-34.632766 21.123531-52.07196 31.685296-14.98297 9.088031-34.632766 4.421204-43.966419-10.561765-7.368674-12.0355-14.98297-24.316623-22.351643-36.352123-31.685296 10.807388-65.335572 16.456704-99.968337 15.719837-3.193092 13.754857-6.631806 27.509715-9.824898 41.264572a31.930919 31.930919 0 0 1-38.562725 23.579755c-19.895419-4.666827-39.545215-9.579276-59.440634-14.246102-17.193572-4.175582-27.755337-21.614776-23.579755-38.562725 3.193092-13.754857 6.631806-27.509715 9.824898-41.264572A288.115136 288.115136 0 0 1 147.373471 556.580475c-12.0355 7.368674-24.316623 14.737347-36.352123 22.351643-14.98297 9.088031-34.632766 4.421204-43.966419-10.561765-10.561765-17.439194-21.369153-34.632766-31.930918-52.07196-9.333653-15.228592-4.666827-34.878388 10.561765-44.212041 12.0355-7.368674 24.071-14.737347 36.352123-22.106021-11.05301-31.685296-16.456704-65.335572-15.96546-99.968338-13.754857-3.438714-27.755337-6.631806-41.510194-10.07052-17.193572-4.175582-27.755337-21.614776-23.579755-38.562725 4.666827-19.649796 9.579276-39.545215 14.246102-59.195011a31.930919 31.930919 0 0 1 38.562725-23.579755c13.754857 3.438714 27.755337 6.631806 41.510194 10.07052A290.325738 290.325738 0 0 1 154.742144 146.882226C147.373471 134.846726 140.004797 122.811226 132.390501 110.530103a31.439674 31.439674 0 0 1-3.929959-24.316623c1.96498-8.596786 6.877429-15.228592 14.491725-19.895418 17.439194-10.561765 34.632766-21.123531 52.071959-31.685296 14.98297-9.088031 34.632766-4.421204 43.966419 10.561765 7.368674 12.0355 14.98297 24.316623 22.351643 36.352123 31.685296-10.807388 65.335572-16.456704 99.968338-15.719837 3.193092-13.754857 6.631806-27.509715 9.824898-41.264572a31.930919 31.930919 0 0 1 38.562725-23.579755c19.895419 4.666827 39.545215 9.579276 59.440633 14.246102z m328.397218 764.868314l3.193092 0.736867c11.05301 2.701847 22.842888 3.438714 34.632765 1.473735a86.704725 86.704725 0 0 0 71.721756-98.740226c-6.877429-47.405133-52.317582-80.072919-99.477093-72.458623-47.159511 7.614296-79.090429 52.317582-71.476133 99.477093a87.19597 87.19597 0 0 0 61.651235 69.511154z m-13.754857 75.897337c-9.333653-2.210602-18.421684-5.158071-27.264093-9.08803-4.666827 6.631806-9.333653 13.01799-14.000479 19.649796-5.894939 8.105541-17.193572 9.824898-25.05349 4.175581-9.333653-6.631806-18.667306-13.509235-28.00096-20.141041a18.126937 18.126937 0 0 1-4.175582-25.299112c4.666827-6.386184 9.333653-13.01799 14.00048-19.404174-12.526745-14.00048-22.842888-30.457184-29.965939-48.633245-7.859918 1.228112-15.965459 2.701847-23.825378 3.929959-9.824898 1.719357-19.158551-5.158071-20.632286-14.98297-1.719357-11.298633-3.684337-22.597266-5.403694-33.895898-1.719357-9.824898 5.158071-19.158551 14.98297-20.877908 7.859918-1.228112 15.965459-2.701847 23.825378-3.929959 0.98249-19.404174 5.649316-38.317102 13.01799-55.510674-6.386184-4.666827-13.01799-9.333653-19.404174-14.00048a18.126937 18.126937 0 0 1-4.175582-25.299113c6.631806-9.333653 13.509235-18.667306 20.141041-28.000959 5.894939-8.105541 17.193572-9.824898 25.05349-4.175582 6.631806 4.666827 13.01799 9.333653 19.649797 14.00048 14.00048-12.526745 30.457184-22.842888 48.633245-29.965939-1.228112-7.859918-2.456225-15.719837-3.929959-23.825378-1.719357-9.824898 5.158071-19.158551 14.982969-20.877908 11.298633-1.96498 22.842888-3.684337 34.141521-5.649317 9.824898-1.719357 19.158551 5.158071 20.632286 14.98297 1.228112 7.859918 2.456225 15.719837 3.929959 23.825378 19.404174 0.98249 38.317102 5.649316 55.510674 13.01799 4.666827-6.631806 9.333653-13.01799 14.246102-19.649797 5.894939-8.105541 17.193572-9.824898 25.05349-4.175581 9.333653 6.631806 18.667306 13.509235 28.00096 20.141041 8.105541 5.894939 10.070521 17.193572 4.175582 25.299112-4.666827 6.386184-9.333653 13.01799-14.00048 19.404174 12.526745 14.00048 22.842888 30.457184 29.965939 48.633245 7.859918-1.228112 15.965459-2.701847 23.825378-3.929959 9.824898-1.719357 19.158551 5.158071 20.632286 14.98297l5.403694 33.895898c1.719357 9.824898-5.158071 19.158551-14.98297 20.877908-7.859918 1.228112-15.965459 2.701847-23.825378 3.929959-0.98249 19.404174-5.649316 38.317102-13.01799 55.510675 6.386184 4.666827 13.01799 9.333653 19.404174 14.000479 8.105541 5.894939 10.070521 17.193572 4.175582 25.299113-6.631806 9.333653-13.509235 18.667306-20.141041 28.000959-5.894939 8.105541-17.193572 9.824898-25.05349 4.175582-6.631806-4.666827-13.01799-9.333653-19.649797-14.00048-14.00048 12.526745-30.457184 22.842888-48.633245 29.965939 1.228112 7.859918 2.456225 15.719837 3.929959 23.825378 1.719357 9.824898-5.158071 19.158551-14.982969 20.877908-11.298633 1.96498-22.597266 3.684337-34.141521 5.649317-9.824898 1.719357-19.158551-5.158071-20.632286-14.98297-1.228112-7.859918-2.456225-15.719837-3.929959-23.825378-9.579276-0.491245-19.158551-1.96498-28.492204-4.175581zM391.76781 206.077237c-82.283521-19.895419-165.058287 30.948429-184.953706 113.477572a153.514032 153.514032 0 0 0 113.23195 185.199329c82.283521 19.895419 165.058287-30.948429 184.953706-113.477573 19.895419-82.774766-31.194051-164.32142-113.23195-185.199328z m141.724154 642.793955a67.668985 67.668985 0 0 0-84.002878-45.685776 67.49705 67.49705 0 0 0-45.440153 84.248501 67.668985 67.668985 0 0 0 84.002878 45.685776c36.1065-10.807388 55.756296-48.142 45.440153-84.248501z m90.389063-13.01799c2.210602 7.368674-1.96498 15.474214-9.579276 17.684817-6.140561 1.719357-12.0355 3.684337-18.176061 5.403694 0.98249 15.228592-0.491245 30.211562-4.666827 44.457663 5.403694 2.947469 11.05301 5.894939 16.456704 8.842409 6.877429 3.684337 9.333653 12.281123 5.649317 19.158551-4.175582 7.859918-8.596786 15.719837-12.772368 23.579755-3.684337 6.877429-12.281123 9.333653-19.158551 5.649317-5.649316-2.947469-11.05301-5.894939-16.702327-8.842409-9.579276 11.298633-21.369153 20.877908-34.632765 28.246582 1.719357 5.894939 3.438714 12.0355 5.403694 17.930439 2.210602 7.368674-1.96498 15.474214-9.579276 17.684817-8.596786 2.456225-17.193572 5.158071-25.790357 7.614296-7.368674 2.210602-15.228592-1.96498-17.439194-9.579276-1.719357-5.894939-3.438714-12.0355-5.403694-17.930439-15.228592 1.228112-30.211562-0.491245-44.457664-4.666826-2.947469 5.649316-5.894939 11.05301-9.088031 16.456704-3.684337 6.877429-12.281123 9.333653-19.158551 5.649316-7.859918-4.175582-15.719837-8.596786-23.579755-12.772367a14.123291 14.123291 0 0 1-5.649317-19.158552c2.947469-5.403694 5.894939-11.05301 8.842408-16.456704-11.05301-9.579276-20.632286-21.369153-28.000959-34.632765-6.140561 1.719357-12.0355 3.684337-18.176061 5.403693-7.368674 2.210602-15.228592-1.96498-17.439194-9.579275-2.456225-8.596786-5.158071-17.193572-7.614296-25.790358a14.246102 14.246102 0 0 1 9.579275-17.684816c6.140561-1.719357 12.0355-3.684337 18.176062-5.403694-0.98249-15.228592 0.491245-30.211562 4.666826-44.457664-5.403694-2.947469-11.05301-5.894939-16.456704-8.842408a13.902231 13.902231 0 0 1-5.649316-19.158551c4.175582-7.859918 8.596786-15.719837 12.772367-23.579755 3.684337-6.877429 12.281123-9.333653 19.158551-5.649317 5.649316 2.947469 11.05301 5.894939 16.702327 8.842408 9.579276-11.05301 21.369153-20.632286 34.632766-28.246582-1.719357-5.894939-3.438714-12.0355-5.403694-17.930438a14.246102 14.246102 0 0 1 9.579275-17.684817c8.596786-2.456225 17.193572-5.158071 25.790358-7.614296 7.368674-2.210602 15.228592 1.96498 17.439194 9.579276 1.719357 5.894939 3.438714 12.0355 5.403694 17.930439 15.228592-1.228112 30.211562 0.491245 44.457663 4.666826 2.947469-5.649316 5.894939-11.05301 9.088031-16.702327 3.684337-6.877429 12.281123-9.333653 19.158551-5.649316 7.859918 4.175582 15.719837 8.596786 23.579756 12.772368 3.438714 1.96498 5.649316 4.666827 6.877428 8.351163 1.228112 3.684337 0.736867 7.368674-1.228112 10.807388-2.947469 5.403694-5.894939 11.05301-8.842408 16.456704 11.05301 9.579276 20.632286 21.369153 28.000959 34.632766 6.140561-1.719357 12.0355-3.684337 18.176062-5.403694 7.368674-2.210602 15.228592 1.96498 17.439194 9.579275 2.456225 8.596786 5.158071 17.193572 7.614296 25.790358z" fill="#646464" /></svg>