<?xml version="1.0" standalone="no"?><!DOCTYPE svg PUBLIC "-//W3C//DTD SVG 1.1//EN" "http://www.w3.org/Graphics/SVG/1.1/DTD/svg11.dtd"><svg class="icon" width="48px" height="48.00px" viewBox="0 0 1024 1024" version="1.1" xmlns="http://www.w3.org/2000/svg"><path d="M489.910857 12.385524a36.571429 36.571429 0 0 1 3.510857 72.97219l-3.510857 0.170667h-42.422857v251.075048h146.285714V231.814095h-51.687619a36.571429 36.571429 0 0 1-3.510857-72.996571l3.535238-0.146286h313.514667a36.571429 36.571429 0 0 1 3.510857 72.972191l-3.510857 0.170666h-42.422857v104.789334H987.428571v573.610666a109.714286 109.714286 0 0 1-104.545523 109.592381l-5.168762 0.121905H146.285714a109.714286 109.714286 0 0 1-109.592381-104.545524l-0.121904-5.168762V336.603429h191.488V85.528381h-51.687619A36.571429 36.571429 0 0 1 172.860952 12.53181l3.535238-0.146286h313.514667zM914.285714 581.632h-101.083428v52.46781a109.714286 109.714286 0 0 1-104.545524 109.59238l-5.168762 0.121905a109.714286 109.714286 0 0 1-109.592381-104.569905l-0.121905-5.14438v-52.46781h-146.285714v52.46781a109.714286 109.714286 0 0 1-104.545524 109.59238l-5.168762 0.121905a109.714286 109.714286 0 0 1-109.592381-104.569905l-0.121904-5.14438v-52.46781H109.714286v328.582095a36.571429 36.571429 0 0 0 29.622857 35.913143l3.413333 0.487619 3.535238 0.170667h731.428572a36.571429 36.571429 0 0 0 36.400762-33.060572l0.170666-3.510857V581.632z m-539.940571 0h-73.142857v52.46781a36.571429 36.571429 0 0 0 29.622857 35.913142l3.413333 0.487619 3.535238 0.170667a36.571429 36.571429 0 0 0 36.400762-33.060571l0.170667-3.510857v-52.46781z m365.714286 0h-73.142858v52.46781a36.571429 36.571429 0 0 0 29.622858 35.913142l3.413333 0.487619 3.535238 0.170667a36.571429 36.571429 0 0 0 36.400762-33.060571l0.170667-3.510857v-52.46781z m-512-171.885714H109.714286v98.742857h118.345143v-98.742857z m146.285714 0h-73.142857v98.742857h73.142857v-98.742857z m219.428571 0h-146.285714v98.742857h146.285714v-98.742857z m146.285715 0h-73.142858v98.742857h73.142858v-98.742857z m174.226285 0h-101.083428v98.742857H914.285714v-98.742857z m-174.226285-177.932191h-73.142858v104.789334h73.142858V231.814095z m-365.714286-146.285714h-73.142857v251.075048h73.142857V85.528381z" fill="#646464" /></svg>